<?xml version="1.0" encoding="UTF-8"?>
<svg version="1.1" xmlns="http://www.w3.org/2000/svg" width="2000" height="2000">
<path d="M0 0 C660 0 1320 0 2000 0 C2000 660 2000 1320 2000 2000 C1340 2000 680 2000 0 2000 C0 1340 0 680 0 0 Z " fill="#F0EEE6" transform="translate(0,0)"/>
<path d="M0 0 C120.5483871 0 120.5483871 0 142.35546875 21.30078125 C144.34837809 23.46568652 146.19941636 25.67354496 148 28 C148.46921875 28.59941406 148.9384375 29.19882812 149.421875 29.81640625 C155.26338377 38.1639944 158.80505863 49.84805343 159 60 C159.02054443 60.99700928 159.02054443 60.99700928 159.04150391 62.01416016 C159.11050919 65.90755464 159.14505115 69.80131124 159.1328125 73.6953125 C159.13168457 74.35547363 159.13055664 75.01563477 159.12939453 75.69580078 C158.95423001 78.81505125 158.44182363 81.90723457 158 85 C172.52 85 187.04 85 202 85 C202.05607422 93.21970703 202.05607422 93.21970703 202.11328125 101.60546875 C202.14359831 105.10094142 202.17477051 108.59636546 202.20898438 112.09179688 C202.26307256 117.62586857 202.31419028 123.15984409 202.34643555 128.6940918 C202.37266572 133.16170514 202.41320334 137.62899084 202.46318626 142.09639931 C202.47972292 143.7909668 202.49131859 145.48559079 202.49761391 147.18022728 C202.41251586 166.85535426 202.41251586 166.85535426 211 184 C216.78275624 188.37232789 222.76865104 188.26305417 229.75 188.375 C230.61882812 188.41238281 231.48765625 188.44976563 232.3828125 188.48828125 C238.79568554 188.5749417 243.08855054 187.1974629 248 183 C257.36375227 172.71444345 256.4627097 156.90326322 256.51171875 143.88671875 C256.52860397 142.17892703 256.54675923 140.47114745 256.56611633 138.76338196 C256.61320591 134.3133219 256.64327876 129.86331104 256.66955566 125.41308594 C256.70486703 120.04960164 256.76176046 114.68630624 256.81494904 109.32297516 C256.89298048 101.21534235 256.94394982 93.10794852 257 85 C272.84 85 288.68 85 305 85 C305.12032643 107.43865056 305.12032643 107.43865056 305.14648438 117.06835938 C305.16435655 123.61653009 305.18540596 130.1645739 305.22631836 136.71264648 C305.25912548 141.99706213 305.27689772 147.28134151 305.28463173 152.56585121 C305.29013714 154.57308405 305.3008869 156.58031018 305.31719017 158.58748436 C305.47189346 178.43917547 303.24358715 196.93686239 289.07421875 212.0546875 C272.80798269 227.81539155 248.84037334 229.44689603 227.375 229.4375 C226.26747375 229.43860275 226.26747375 229.43860275 225.13757324 229.43972778 C204.60141098 229.38629146 183.34645274 225.96337948 167.8984375 211.17578125 C164.65279698 207.45598337 162.26096623 203.37120139 160 199 C159.52256348 198.12649902 159.04512695 197.25299805 158.55322266 196.35302734 C150.58185428 179.14479515 152.33385291 158.17708838 152.26177979 139.64093018 C152.24192365 135.61075208 152.19999055 131.58080262 152.16015625 127.55078125 C152.0856946 119.70058354 152.03490132 111.85048419 152 104 C151.52523224 104.75694656 151.05046448 105.51389313 150.56130981 106.29377747 C149.93537933 107.28584702 149.30944885 108.27791656 148.66455078 109.30004883 C148.04540802 110.28387039 147.42626526 111.26769196 146.7883606 112.28132629 C136.91435581 127.29183215 120.74130995 135.76501979 103.58918762 139.52905273 C97.08476875 140.80283802 90.91897044 141.27107849 84.30078125 141.1953125 C83.44689819 141.19329834 82.59301514 141.19128418 81.71325684 141.18920898 C78.57961512 141.1788904 75.44605109 141.15097024 72.3125 141.125 C61.7628125 141.063125 61.7628125 141.063125 51 141 C51 168.72 51 196.44 51 225 C34.17 225 17.34 225 0 225 C0 150.75 0 76.5 0 0 Z " fill="#000000" transform="translate(1030,835)"/>
<path d="M0 0 C15.84 0 31.68 0 48 0 C48.33 69.96 48.66 139.92 49 212 C53.62 204.41 58.24 196.82 63 189 C67.73973992 189 69.05738535 190.09276326 72.9375 192.6875 C83.34763138 199.33251583 93.39749033 203.63398056 106 202 C110.40622355 200.51369828 110.40622355 200.51369828 113 197 C113.50646546 192.92963569 113.50646546 192.92963569 113 189 C108.6795246 184.30626539 102.36576868 182.57532838 96.5625 180.3125 C86.90503897 176.41576951 78.35467901 172.24254106 70 166 C69.2059375 165.41734375 68.411875 164.8346875 67.59375 164.234375 C61.23233561 159.15473814 56.09229401 152.20982271 55 144 C53.89461849 130.3687243 55.05371842 119.55023755 64.125 108.6875 C76.39127294 96.0984304 92.46590215 90.99843662 109.77783203 90.75854492 C128.39052839 90.70388438 145.24031619 92.42252032 162 101 C161.08250713 107.01575508 158.24003458 112.04139891 155.53515625 117.43066406 C154.62357108 119.2528563 153.72942934 121.08294367 152.8359375 122.9140625 C152.26359375 124.06132813 151.69125 125.20859375 151.1015625 126.390625 C150.31773193 127.9689209 150.31773193 127.9689209 149.51806641 129.57910156 C148 132 148 132 145 133 C142.328125 132.07421875 142.328125 132.07421875 139.25 130.6875 C131.26202236 127.11339206 124.5000819 125.65558383 115.8125 125.6875 C114.92369141 125.67138672 114.03488281 125.65527344 113.11914062 125.63867188 C108.08632752 125.62789555 108.08632752 125.62789555 103.41796875 127.3046875 C101.68158473 129.07956579 101.68158473 129.07956579 101.5 132.4375 C102.08772955 136.62507301 102.83564542 137.34965226 106 140 C111.78366038 143.03752545 117.98035992 145.04013599 124.25 146.8125 C129.58550845 148.39577513 134.46440849 150.47443383 139.4375 152.9375 C140.09975586 153.26145752 140.76201172 153.58541504 141.44433594 153.91918945 C145.81062152 156.14714587 149.33559014 158.74337609 153 162 C153.17015625 160.90042969 153.3403125 159.80085937 153.515625 158.66796875 C156.99054072 137.08189019 165.17339909 120.08191896 182.75 106.25 C202.15370893 92.39728826 223.10222443 88.1940783 246.57470703 91.34570312 C251.18403984 92.18571716 255.56703515 93.47285421 260 95 C260.91265625 95.28875 261.8253125 95.5775 262.765625 95.875 C279.45961955 101.75464588 291.52527335 114.36724529 299.4375 129.8046875 C305.63838282 143.4244837 306 156.00557312 306 171 C272.34 171 238.68 171 204 171 C206.0221824 184.46546439 206.0221824 184.46546439 214.51171875 193.8515625 C225.13577644 200.39660242 237.57000486 200.82294199 249.703125 198.19921875 C257.07948337 195.38963722 262.51189542 190.57309735 268 185 C279.74562503 190.51533697 291.42255201 196.13941598 303 202 C295.57842887 217.675468 280.87151389 228.01358242 265.0859375 234.12890625 C244.16981681 241.45225083 219.06867986 242.34101656 198.60546875 233.08203125 C184.78729002 226.39341239 174.22763859 217.25691388 165 205 C164.52691406 205.99 164.05382813 206.98 163.56640625 208 C156.87601186 221.55242538 148.46071502 229.67944258 134 235 C129.03503148 236.37607757 124.09961239 237.28776363 119 238 C118.12472656 238.13019531 117.24945312 238.26039063 116.34765625 238.39453125 C113.55858798 238.72498958 110.80712966 238.88528557 108 239 C107.26007813 239.03254883 106.52015625 239.06509766 105.7578125 239.09863281 C86.28996711 239.84914554 64.35426291 237.36172497 49 224 C48.67 227.63 48.34 231.26 48 235 C32.16 235 16.32 235 0 235 C0 157.45 0 79.9 0 0 Z " fill="#010101" transform="translate(1340,825)"/>
<path d="M0 0 C9.58886512 8.27930842 15.27817333 16.71115631 21.38671875 27.91015625 C21.71671875 13.72015625 22.04671875 -0.46984375 22.38671875 -15.08984375 C38.55671875 -15.08984375 54.72671875 -15.08984375 71.38671875 -15.08984375 C71.38671875 31.11015625 71.38671875 77.31015625 71.38671875 124.91015625 C55.21671875 124.91015625 39.04671875 124.91015625 22.38671875 124.91015625 C22.05671875 110.39015625 21.72671875 95.87015625 21.38671875 80.91015625 C19.07671875 85.53015625 16.76671875 90.15015625 14.38671875 94.91015625 C11.43705914 98.47432828 8.62885181 101.67385437 5.38671875 104.91015625 C4.835 105.53277344 4.28328125 106.15539063 3.71484375 106.796875 C-9.36206083 121.20089119 -31.11868672 127.96202252 -50.08520508 129.05224609 C-67.9321741 129.70314916 -85.65405734 128.62219636 -101.61328125 119.91015625 C-102.48597656 119.50410156 -103.35867188 119.09804687 -104.2578125 118.6796875 C-120.79637693 110.61151801 -133.47711439 95.08751507 -139.61328125 77.91015625 C-144.66284794 59.56610875 -143.80608082 38.06006991 -134.69921875 21.328125 C-123.17502317 1.38136725 -104.22492441 -11.38219146 -82.23828125 -17.40234375 C-53.06760732 -22.93471294 -23.53437448 -18.8204639 0 0 Z " fill="#010101" transform="translate(795.61328125,935.08984375)"/>
<path d="M0 0 C0.639375 0.556875 1.27875 1.11375 1.9375 1.6875 C0.36484187 6.96661062 -1.93533101 11.69160848 -4.4140625 16.5859375 C-4.83295746 17.42089752 -5.25185242 18.25585754 -5.68344116 19.11611938 C-7.01436436 21.76682433 -8.35084106 24.41468353 -9.6875 27.0625 C-10.5941188 28.86570004 -11.5003728 30.66908354 -12.40625 32.47265625 C-14.62078184 36.87973959 -16.84029658 41.28428029 -19.0625 45.6875 C-19.97451172 45.21554199 -20.88652344 44.74358398 -21.82617188 44.25732422 C-28.27718635 40.95264243 -34.56261976 37.7957994 -41.5625 35.8125 C-42.2121875 35.61398437 -42.861875 35.41546875 -43.53125 35.2109375 C-63.79739026 29.16378274 -86.16855129 32.42358575 -104.70703125 42.0625 C-120.79507831 51.15681846 -130.48901395 65.64313799 -135.8046875 83.12890625 C-139.65099113 99.12004531 -136.43584195 115.24724069 -129.0625 129.6875 C-119.3652843 145.34733629 -106.51606128 155.31794647 -89.07421875 160.99609375 C-67.09965069 166.04083895 -44.13292037 163.82848292 -24.48046875 152.82421875 C-22.0625 151.6875 -22.0625 151.6875 -18.0625 151.6875 C-15.1790633 157.30239289 -12.31439345 162.92656391 -9.46264648 168.55761719 C-8.49007061 170.47257379 -7.51319999 172.3853554 -6.53198242 174.29589844 C-5.12327666 177.04063015 -3.73014173 179.79278307 -2.33984375 182.546875 C-1.67588844 183.82833405 -1.67588844 183.82833405 -0.9985199 185.13568115 C-0.59802933 185.93620911 -0.19753876 186.73673706 0.21508789 187.56152344 C0.75136559 188.61409332 0.75136559 188.61409332 1.29847717 189.68792725 C2.07426217 192.11544388 1.85608415 193.33338195 0.9375 195.6875 C-8.93758728 204.03989809 -24.54065262 209.35341591 -37.0625 211.6875 C-37.73104004 211.82140137 -38.39958008 211.95530273 -39.08837891 212.09326172 C-59.07215961 216.014158 -80.24104169 216.76689635 -100.0625 211.6875 C-101.45275391 211.38005859 -101.45275391 211.38005859 -102.87109375 211.06640625 C-123.10493935 206.22591718 -140.90936589 195.70450409 -156.0625 181.6875 C-156.58473145 181.20909668 -157.10696289 180.73069336 -157.64501953 180.23779297 C-171.76174769 167.16966114 -181.90674742 151.05261908 -188.4375 133 C-188.67621826 132.34805664 -188.91493652 131.69611328 -189.16088867 131.02441406 C-192.84167123 120.2629507 -193.38332033 109.41494118 -193.3125 98.125 C-193.32023437 96.88814453 -193.32796875 95.65128906 -193.3359375 94.37695312 C-193.31342037 83.73197994 -191.83548198 74.01557959 -188.4375 63.9375 C-188.17952637 63.17236084 -187.92155273 62.40722168 -187.65576172 61.61889648 C-181.84775621 45.07721708 -172.03242071 31.38157961 -160.0625 18.6875 C-159.46179688 18.02234375 -158.86109375 17.3571875 -158.2421875 16.671875 C-121.16372596 -22.81427885 -44.34045066 -33.48156478 0 0 Z " fill="#010101" transform="translate(667.0625,849.3125)"/>
<path d="M0 0 C1.08796875 0.36351562 2.1759375 0.72703125 3.296875 1.1015625 C18.60856144 6.57002194 28.42283571 14.84208239 35.5546875 29.4375 C38.54209181 36.80104793 39.28939188 43.23029289 39.22705078 51.08789062 C39.22734283 52.06441589 39.22763489 53.04094116 39.22793579 54.04705811 C39.22655097 57.25021488 39.21102977 60.45313424 39.1953125 63.65625 C39.19157936 65.88683953 39.18873381 68.1174307 39.18673706 70.34802246 C39.17912435 76.20056741 39.15949617 82.05301207 39.1373291 87.90551758 C39.1132097 94.93739754 39.10407845 101.96931116 39.09242249 109.0012207 C39.07307041 119.66755007 39.03473121 130.33365969 39 141 C22.83 141 6.66 141 -10 141 C-10.05607422 131.95271484 -10.05607422 131.95271484 -10.11328125 122.72265625 C-10.14357543 118.88994598 -10.1747328 115.05728134 -10.20898438 111.22460938 C-10.2632072 105.14805462 -10.31432122 99.07159011 -10.34643555 92.99487305 C-10.37254233 88.09287248 -10.41299667 83.19117682 -10.46318626 78.28936577 C-10.4798052 76.42402389 -10.49135033 74.55862934 -10.49761391 72.69322395 C-10.50730936 70.06998237 -10.53543254 67.44751213 -10.56762695 64.82446289 C-10.56619186 64.0620076 -10.56475677 63.29955231 -10.5632782 62.51399231 C-10.70149933 54.49316998 -12.72584661 47.38746592 -18.359375 41.5078125 C-24.58353158 35.78751622 -29.2860079 35.57222108 -37.59765625 35.6640625 C-45.93503984 36.48727144 -51.73293616 40.4680391 -57.3125 46.5 C-61.96448019 53.3918225 -63.14281638 58.81039971 -63.20532227 66.98144531 C-63.21522186 67.7818222 -63.22512146 68.5821991 -63.23532104 69.40682983 C-63.26685942 72.04723166 -63.29166313 74.68765147 -63.31640625 77.328125 C-63.3369824 79.16087303 -63.35797904 80.99361639 -63.37937927 82.82635498 C-63.43453171 87.64644582 -63.48397108 92.466579 -63.53222656 97.28674316 C-63.59133144 103.07210922 -63.65752182 108.857398 -63.72252655 114.6427002 C-63.82045016 123.42841954 -63.90936499 132.21418881 -64 141 C-79.84 141 -95.68 141 -112 141 C-112 94.8 -112 48.6 -112 1 C-96.16 1 -80.32 1 -64 1 C-64 5.62 -64 10.24 -64 15 C-63.23558594 14.35933594 -62.47117187 13.71867188 -61.68359375 13.05859375 C-43.55517294 -1.72427555 -22.88424755 -7.9903099 0 0 Z " fill="#010101" transform="translate(987,919)"/>
<path d="M0 0 C0.69609375 0.42410156 1.3921875 0.84820313 2.109375 1.28515625 C9.22641546 6.08782077 13.75882347 12.72802117 16 21 C17.15821454 33.1208498 15.35066391 42.68667011 7.703125 52.24609375 C1.67735728 58.45152886 -5.88575314 61.21035157 -14.42041016 61.38085938 C-24.6752332 61.35506649 -32.35192356 60.56298834 -40.3125 53.5 C-47.45407909 45.6051509 -49.79786791 36.72195345 -49.65795898 26.29931641 C-49.15013426 17.02916899 -45.3963246 9.9338311 -38.75 3.5 C-27.7061042 -5.3057641 -12.37365238 -7.81878428 0 0 Z " fill="#EFEDE5" transform="translate(754,961)"/>
<path d="M0 0 C18.78840989 0 31.48716505 0.11147362 46.875 9.8125 C52.96448884 16.08109146 54.28475828 23.70279271 54.32128906 32.15966797 C54.17631258 40.29598337 51.42698615 46.03967211 46 52 C30.98333784 61.65633301 18.17084986 61 0 61 C0 40.87 0 20.74 0 0 Z " fill="#ECEAE2" transform="translate(1081,875)"/>
<path d="M0 0 C0.7125293 -0.00241699 1.42505859 -0.00483398 2.15917969 -0.00732422 C9.86724223 0.23433589 15.73090439 3.1187339 21.37890625 8.359375 C27.21740316 15.01172299 30.40267773 22.66350888 29.890625 31.54296875 C28.27651586 39.97341717 24.07883414 46.70014476 17.53515625 52.16015625 C9.29194311 57.36105874 0.82829544 57.95743703 -8.6875 56.5625 C-16.28216452 54.02131948 -21.68614485 48.38299173 -25.6875 41.5625 C-28.66264675 34.35425856 -29.10286744 25.54306326 -26.96484375 18.01953125 C-26.0182727 16.0382469 -24.97687933 14.33699235 -23.6875 12.5625 C-22.98625 11.53125 -22.285 10.5 -21.5625 9.4375 C-15.3497628 2.66673251 -9.06454842 0.02941762 0 0 Z " fill="#020202" transform="translate(842.6875,833.4375)"/>
<path d="M0 0 C4.48708042 4.03536092 8.19487301 8.1604142 10 14 C10 15.65 10 17.3 10 19 C-7.49 19 -24.98 19 -43 19 C-41.90649563 10.25196507 -40.46347553 6.61627806 -33.77734375 1.19921875 C-23.87271803 -5.72905867 -10.46658295 -6.60307918 0 0 Z " fill="#E9E7E0" transform="translate(1588,951)"/>
<path d="M0 0 C5.17310011 1.82580004 7.37163287 4.23000039 10 9 C12.15909585 15.46298891 12.27838831 24.67231461 9.875 31.0625 C7.68238541 34.4975962 5.71041341 37.24162037 2 39 C-3.17601001 40.035202 -6.82804855 39.66055446 -11.4375 37.0625 C-17.14692451 30.23904145 -17.73416886 22.65270444 -17 14 C-16.00506942 8.39220944 -14.32362668 5.69090083 -10 2 C-6.25816125 -0.49455917 -4.43756964 -0.37606522 0 0 Z " fill="#0C0C0C" transform="translate(987,1747)"/>
<path d="M0 0 C2 0.3125 2 0.3125 4 1 C4.33 1.66 4.66 2.32 5 3 C5.495 2.505 5.99 2.01 6.5 1.5 C9.95971396 -0.57582838 13.11047742 -0.55897331 17 0 C21.59177808 1.87845467 23.88802807 4.54139258 26 9 C26.8076648 13.97024491 27.23407271 18.78769893 24.71875 23.296875 C22.66936616 25.72800681 20.85358584 27.57320708 18 29 C16.35744209 29.12114921 14.70947522 29.17540767 13.0625 29.1875 C12.18722656 29.20167969 11.31195312 29.21585938 10.41015625 29.23046875 C8 29 8 29 5 27 C4.67 30.96 4.34 34.92 4 39 C2.02 39.495 2.02 39.495 0 40 C-1.84276509 38.15723491 -1.12874411 35.57036241 -1.13894653 33.11865234 C-1.1369223 32.29574707 -1.13489807 31.4728418 -1.1328125 30.625 C-1.13376923 29.78533691 -1.13472595 28.94567383 -1.13571167 28.08056641 C-1.13639348 26.30175705 -1.13453917 24.52294523 -1.13037109 22.74414062 C-1.12502283 20.01166224 -1.13031605 17.27934824 -1.13671875 14.546875 C-1.13605797 12.8229163 -1.13477681 11.09895771 -1.1328125 9.375 C-1.13483673 8.55209473 -1.13686096 7.72918945 -1.13894653 6.88134766 C-1.11495054 1.11495054 -1.11495054 1.11495054 0 0 Z " fill="#0A0A09" transform="translate(850,1107)"/>
<path d="M0 0 C2.27734375 1.0234375 2.27734375 1.0234375 4 2 C4.66 1.34 5.32 0.68 6 0 C7.32 0.33 8.64 0.66 10 1 C10 9.91 10 18.82 10 28 C8.68 28.33 7.36 28.66 6 29 C5.34 28.34 4.68 27.68 4 27 C3.01 27.66 2.02 28.32 1 29 C-3.04712777 29.66175067 -7.22065714 29.94221821 -10.91796875 27.984375 C-14.10749001 25.3697551 -16.79391925 22.70484984 -17.30078125 18.51171875 C-17.33004536 11.45906709 -16.71758117 7.0372966 -11.875 1.625 C-7.93637461 -0.60117957 -4.43684514 -0.68259156 0 0 Z " fill="#090909" transform="translate(1496,1107)"/>
<path d="M0 0 C4.42977671 2.1357852 7.19613671 4.39012714 9 9 C9.71427182 14.92250384 9.56423474 20.01007136 6 25 C2.40349187 28.41668272 -0.60226826 29.3331616 -5.4375 29.625 C-10.51466776 29.45183602 -13.15137313 28.09974613 -16.7578125 24.60546875 C-19.80693855 20.66461716 -19.44308354 15.78547317 -19.42578125 11.02734375 C-18.77903762 6.42893719 -16.55732941 3.8477067 -13 1 C-9.05100663 -0.97449669 -4.30409896 -0.43770498 0 0 Z " fill="#0B0B0A" transform="translate(993,1107)"/>
<path d="M0 0 C2 0.3125 2 0.3125 4 1 C4.33 1.66 4.66 2.32 5 3 C5.495 2.505 5.99 2.01 6.5 1.5 C9.99657929 -0.59794758 13.01192392 -0.62109382 17 0 C19.5 1.375 19.5 1.375 21 3 C21 3.66 21 4.32 21 5 C21.66 5 22.32 5 23 5 C23 4.34 23 3.68 23 3 C26.53297287 0.12945954 29.55982558 -0.38192704 33.9375 -0.59375 C37.55802974 0.44852371 38.82189299 1.92215859 41 5 C41.61171475 8.95545442 41.47093783 12.82230428 41.3125 16.8125 C41.28994141 17.88693359 41.26738281 18.96136719 41.24414062 20.06835938 C41.18535598 22.7136685 41.10323957 25.35611413 41 28 C39.0625 28.5625 39.0625 28.5625 37 29 C35.42534127 27.42534127 35.79945592 25.7820823 35.71875 23.59765625 C35.66267578 22.26250977 35.66267578 22.26250977 35.60546875 20.90039062 C35.55326172 19.49563477 35.55326172 19.49563477 35.5 18.0625 C35.43123648 16.21989241 35.35851082 14.37742711 35.28125 12.53515625 C35.25095703 11.714104 35.22066406 10.89305176 35.18945312 10.04711914 C35.1188921 7.93537834 35.1188921 7.93537834 34 6 C29.9899066 5.82135369 29.9899066 5.82135369 26 6 C23.60403819 8.39596181 23.73540855 9.00845339 23.65625 12.28125 C23.61177734 13.54388672 23.61177734 13.54388672 23.56640625 14.83203125 C23.54449219 15.71246094 23.52257813 16.59289063 23.5 17.5 C23.45669545 19.239824 23.40501116 20.97946569 23.34375 22.71875 C23.32505859 23.49154297 23.30636719 24.26433594 23.28710938 25.06054688 C23 27 23 27 21 29 C18.875 28.625 18.875 28.625 17 28 C16.97494385 27.36908447 16.9498877 26.73816895 16.92407227 26.08813477 C16.80845863 23.24603175 16.68557684 20.40428917 16.5625 17.5625 C16.52318359 16.56927734 16.48386719 15.57605469 16.44335938 14.55273438 C16.40146484 13.60849609 16.35957031 12.66425781 16.31640625 11.69140625 C16.27974854 10.81685791 16.24309082 9.94230957 16.20532227 9.04125977 C16.21818934 7.0072598 16.21818934 7.0072598 15 6 C10.96916989 5.67539739 10.96916989 5.67539739 7 6 C4.94872156 9.07691766 4.72739128 9.93644999 4.5859375 13.44921875 C4.54726562 14.29677734 4.50859375 15.14433594 4.46875 16.01757812 C4.42234375 17.33918945 4.42234375 17.33918945 4.375 18.6875 C4.33632812 19.58017578 4.29765625 20.47285156 4.2578125 21.39257812 C4.16359782 23.5948462 4.07798412 25.79710722 4 28 C2.0625 28.5625 2.0625 28.5625 0 29 C-1.80279191 27.19720809 -1.13036605 24.45952299 -1.1328125 22.03125 C-1.13410156 20.82082031 -1.13539062 19.61039063 -1.13671875 18.36328125 C-1.13285156 17.08839844 -1.12898438 15.81351563 -1.125 14.5 C-1.12886719 13.22511719 -1.13273437 11.95023438 -1.13671875 10.63671875 C-1.13542969 9.42628906 -1.13414063 8.21585938 -1.1328125 6.96875 C-1.13168457 5.84919922 -1.13055664 4.72964844 -1.12939453 3.57617188 C-1 1 -1 1 0 0 Z " fill="#0E0E0E" transform="translate(1279,1107)"/>
<path d="M0 0 C4.3934329 2.19671645 7.05384852 4.45897989 9 9 C9.25 12.25 9.25 12.25 9 15 C8 16 8 16 5.95874023 16.11352539 C5.08419189 16.10828857 4.20964355 16.10305176 3.30859375 16.09765625 C2.36435547 16.09443359 1.42011719 16.09121094 0.44726562 16.08789062 C-0.54595703 16.07951172 -1.53917969 16.07113281 -2.5625 16.0625 C-3.55958984 16.05798828 -4.55667969 16.05347656 -5.58398438 16.04882812 C-8.05604849 16.03700007 -10.52799518 16.02051849 -13 16 C-10.1204024 20.57748509 -10.1204024 20.57748509 -6 24 C-1.92509248 24.33957563 -0.46998729 24.31332486 3 22 C5.6875 22.375 5.6875 22.375 8 23 C7.05708604 25.35728489 6.4290911 26.7267671 4.2578125 28.109375 C-0.03204335 29.80156727 -4.47514341 29.51806329 -9 29 C-13.18365004 27.13229909 -14.59272556 25.70594237 -16.875 21.75 C-18.57718902 16.0760366 -19.10058392 11.57099537 -16.3125 6.1875 C-11.89777306 0.10233584 -7.27242818 -1.15435368 0 0 Z " fill="#101010" transform="translate(1168,1107)"/>
<path d="M0 0 C4.20475482 1.6997945 6.20472472 3.8425204 8 8 C8.25 11.75 8.25 11.75 8 15 C7 16 7 16 5.05053711 16.11352539 C4.2178833 16.10828857 3.38522949 16.10305176 2.52734375 16.09765625 C1.62822266 16.09443359 0.72910156 16.09121094 -0.19726562 16.08789062 C-1.14279297 16.07951172 -2.08832031 16.07113281 -3.0625 16.0625 C-4.01189453 16.05798828 -4.96128906 16.05347656 -5.93945312 16.04882812 C-8.29303065 16.0370011 -10.64648477 16.02052025 -13 16 C-10.88673474 20.70842624 -10.88673474 20.70842624 -7 24 C-2.9187012 24.34734458 -0.5598237 23.89857264 3 22 C4.32 22 5.64 22 7 22 C6.64170025 24.59767322 6.24065386 25.76997968 4.3203125 27.60546875 C-0.06932963 30.24368801 -5.06260984 29.71288521 -10 29 C-13.98189186 27.08504437 -16.35904912 24.05842316 -18 20 C-18.68781032 14.7054601 -18.65484652 10.30969305 -16.25 5.5 C-11.16621742 -0.14864731 -7.44061014 -0.88176062 0 0 Z " fill="#0F0F0E" transform="translate(1061,1705)"/>
<path d="M0 0 C2.0625 0.4375 2.0625 0.4375 4 1 C4.02187378 1.83192871 4.02187378 1.83192871 4.04418945 2.68066406 C4.11886897 5.20446242 4.21546025 7.72696654 4.3125 10.25 C4.33505859 11.12269531 4.35761719 11.99539063 4.38085938 12.89453125 C4.55443721 19.0532778 4.55443721 19.0532778 8 24 C11.43230448 23.73606499 11.43230448 23.73606499 15 23 C17.05127844 19.92308234 17.27260872 19.06355001 17.4140625 15.55078125 C17.45273437 14.70322266 17.49140625 13.85566406 17.53125 12.98242188 C17.5621875 12.10134766 17.593125 11.22027344 17.625 10.3125 C17.66367187 9.41982422 17.70234375 8.52714844 17.7421875 7.60742188 C17.83640218 5.4051538 17.92201588 3.20289278 18 1 C19.9375 0.4375 19.9375 0.4375 22 0 C24.66765041 2.66765041 23.3183447 10.16596357 23.35009766 13.99047852 C23.3665996 15.44637095 23.39381383 16.90218429 23.43212891 18.35766602 C23.48722258 20.46152577 23.50882247 22.56348234 23.5234375 24.66796875 C23.54325684 25.92891357 23.56307617 27.1898584 23.58349609 28.48901367 C22.81252071 33.1280919 21.28375953 34.69134022 18 38 C13.76028868 40.5909347 8.84087804 40.62317273 4 40 C1.4375 38.5 1.4375 38.5 0 37 C0.33 36.01 0.66 35.02 1 34 C1.81984375 34.04640625 2.6396875 34.0928125 3.484375 34.140625 C4.56203125 34.17671875 5.6396875 34.2128125 6.75 34.25 C7.81734375 34.29640625 8.8846875 34.3428125 9.984375 34.390625 C13.09484549 34.24342391 13.09484549 34.24342391 15.390625 32.171875 C17.29768289 30.04880097 17.29768289 30.04880097 17 27 C16.01 27.66 15.02 28.32 14 29 C9.37731367 29.66369119 5.31995146 29.9336242 1.4375 27.1875 C-0.79209 23.79464565 -1.12760337 21.10961208 -1.1328125 17.1484375 C-1.13474609 15.74851562 -1.13474609 15.74851562 -1.13671875 14.3203125 C-1.13091797 12.86238281 -1.13091797 12.86238281 -1.125 11.375 C-1.12886719 10.3953125 -1.13273438 9.415625 -1.13671875 8.40625 C-1.13542969 7.47554687 -1.13414062 6.54484375 -1.1328125 5.5859375 C-1.13168457 4.7304834 -1.13055664 3.8750293 -1.12939453 2.99365234 C-1 1 -1 1 0 0 Z " fill="#080808" transform="translate(782,1107)"/>
<path d="M0 0 C-0.33 1.65 -0.66 3.3 -1 5 C-2.06927734 4.76410156 -2.06927734 4.76410156 -3.16015625 4.5234375 C-8.26757085 3.58204334 -14.25043148 2.56915657 -19.01171875 5.046875 C-21.1445242 6.80269546 -22.76022261 8.52044521 -24 11 C-24.55845758 16.97120027 -24.48058514 21.9034289 -21 27 C-18.01267186 29.72221894 -16.14500509 30.3752338 -12.125 30.25 C-11.25359375 30.22421875 -10.3821875 30.1984375 -9.484375 30.171875 C-6.60944517 29.97298048 -3.82021138 29.59372871 -1 29 C-0.67 30.32 -0.34 31.64 0 33 C-4.39414818 37.11065475 -8.84388323 36.48247359 -14.57421875 36.3515625 C-20.38087472 35.7556685 -23.2783065 33.81475801 -27.3125 29.5625 C-31.30217855 23.50409923 -31.9869837 17.93491849 -30.5703125 10.8515625 C-28.86541041 5.35798911 -25.77027634 2.11863227 -21 -1 C-13.93240227 -4.38015544 -6.64777048 -4.09093568 0 0 Z " fill="#111110" transform="translate(681,1100)"/>
<path d="M0 0 C3.75212276 2.01502889 5.63644095 3.45466142 8 7 C8.64535974 13.34603742 7.67758505 17.75209626 4 23 C1.98317658 25.21654768 -0.10027755 27.29376499 -2.29296875 29.3359375 C-4.08917372 30.90476973 -4.08917372 30.90476973 -5 33 C-0.71 33.33 3.58 33.66 8 34 C8.33 35.32 8.66 36.64 9 38 C8 39 8 39 5.86694336 39.11352539 C4.49227905 39.10567017 4.49227905 39.10567017 3.08984375 39.09765625 C2.10048828 39.09443359 1.11113281 39.09121094 0.09179688 39.08789062 C-0.94912109 39.07951172 -1.99003906 39.07113281 -3.0625 39.0625 C-4.10728516 39.05798828 -5.15207031 39.05347656 -6.22851562 39.04882812 C-8.8190666 39.03699913 -11.40950559 39.02051689 -14 39 C-14.57202148 37.11401367 -14.57202148 37.11401367 -15 35 C-13.84765625 33.17578125 -13.84765625 33.17578125 -12.0625 31.3125 C-11.42054688 30.62285156 -10.77859375 29.93320313 -10.1171875 29.22265625 C-9.41851563 28.48917969 -8.71984375 27.75570313 -8 27 C-6.55528803 25.42324446 -5.11767322 23.83995448 -3.6875 22.25 C-3.03136719 21.53328125 -2.37523437 20.8165625 -1.69921875 20.078125 C1.3054533 16.40344562 2.36610978 13.75942718 2 9 C1.67 8.01 1.34 7.02 1 6 C-3.02025162 5.72356307 -3.02025162 5.72356307 -7 6 C-8.37195574 7.29355827 -9.71182656 8.62298702 -11 10 C-13.75 9.75 -13.75 9.75 -16 9 C-13.30013489 1.71036419 -7.4112895 -1.62398774 0 0 Z " fill="#0A0A0A" transform="translate(1023,1747)"/>
<path d="M0 0 C3.75212276 2.01502889 5.63644095 3.45466142 8 7 C8.64535974 13.34603742 7.67758505 17.75209626 4 23 C1.98317658 25.21654768 -0.10027755 27.29376499 -2.29296875 29.3359375 C-4.08917372 30.90476973 -4.08917372 30.90476973 -5 33 C-0.71 33.33 3.58 33.66 8 34 C8.33 35.32 8.66 36.64 9 38 C8 39 8 39 5.86694336 39.11352539 C4.49227905 39.10567017 4.49227905 39.10567017 3.08984375 39.09765625 C2.10048828 39.09443359 1.11113281 39.09121094 0.09179688 39.08789062 C-0.94912109 39.07951172 -1.99003906 39.07113281 -3.0625 39.0625 C-4.10728516 39.05798828 -5.15207031 39.05347656 -6.22851562 39.04882812 C-8.8190666 39.03699913 -11.40950559 39.02051689 -14 39 C-14.57202148 37.11401367 -14.57202148 37.11401367 -15 35 C-13.84765625 33.17578125 -13.84765625 33.17578125 -12.0625 31.3125 C-11.42054688 30.62285156 -10.77859375 29.93320313 -10.1171875 29.22265625 C-9.41851563 28.48917969 -8.71984375 27.75570313 -8 27 C-6.55528803 25.42324446 -5.11767322 23.83995448 -3.6875 22.25 C-3.03136719 21.53328125 -2.37523437 20.8165625 -1.69921875 20.078125 C1.3054533 16.40344562 2.36610978 13.75942718 2 9 C1.67 8.01 1.34 7.02 1 6 C-3.02025162 5.72356307 -3.02025162 5.72356307 -7 6 C-8.37195574 7.29355827 -9.71182656 8.62298702 -11 10 C-13.75 9.75 -13.75 9.75 -16 9 C-13.30013489 1.71036419 -7.4112895 -1.62398774 0 0 Z " fill="#0A0A0A" transform="translate(953,1747)"/>
<path d="M0 0 C3.55749381 3.4099237 4.83757806 4.93998311 5.59375 9.875 C5.58850059 11.25034505 5.55682702 12.62581942 5.5 14 C5.50386719 15.02867188 5.50386719 15.02867188 5.5078125 16.078125 C5.41885993 20.73923984 4.45608755 24.05099649 2 28 C-0.87470493 29.43735246 -2.81894588 29.38172649 -6 29 C-10.58723181 24.41276819 -11.1848691 20.49515345 -11.3125 14.1875 C-11.28260622 8.40006407 -11.0516973 5.17086487 -7 1 C-4.32590305 -0.33704848 -2.97186266 -0.4837916 0 0 Z " fill="#ECEAE2" transform="translate(987,1752)"/>
<path d="M0 0 C7.26 0 14.52 0 22 0 C20.86696091 5.66519546 20.86696091 5.66519546 18.0625 8.8125 C17.53785156 9.41707031 17.01320313 10.02164062 16.47265625 10.64453125 C15 12 15 12 13 12 C13 12.66 13 13.32 13 14 C13.9075 14.061875 14.815 14.12375 15.75 14.1875 C19 15 19 15 21.375 16.875 C23.80409732 21.546341 23.89074804 25.84422957 23 31 C21.13427593 34.66735838 18.96138356 36.67953881 15 38 C13.19127624 38.14359334 11.37667423 38.22046121 9.5625 38.25 C8.61503906 38.27578125 7.66757813 38.3015625 6.69140625 38.328125 C3.6097166 37.95241828 2.28027445 37.0484735 0 35 C0.33 33.68 0.66 32.36 1 31 C5.875 31.875 5.875 31.875 7 33 C10.17815029 33.28250225 12.4180179 33.24504509 15.375 32 C18.01186327 28.75462982 17.39027373 26.09787416 17 22 C14.50494038 19.50494038 13.32671112 19.64051624 9.875 19.375 C8.96492188 19.30023437 8.05484375 19.22546875 7.1171875 19.1484375 C6.41851563 19.09945313 5.71984375 19.05046875 5 19 C4.67 18.01 4.34 17.02 4 16 C5.328125 14.09765625 5.328125 14.09765625 7.25 12.0625 C9.70318593 9.43191426 11.82470586 6.90039219 14 4 C9.38 4 4.76 4 0 4 C0 2.68 0 1.36 0 0 Z " fill="#0B0B0A" transform="translate(1040,1748)"/>
<path d="M0 0 C0.928125 0.37125 1.85625 0.7425 2.8125 1.125 C3.864375 1.41375 4.91625 1.7025 6 2 C6.99 1.34 7.98 0.68 9 0 C11.0859375 -0.40625 11.0859375 -0.40625 13.375 -0.5 C14.12523437 -0.5515625 14.87546875 -0.603125 15.6484375 -0.65625 C18.57622904 0.1608081 20.19147761 1.56318789 22.02734375 3.96777344 C24.04564214 8.18472017 23.50409147 12.8062804 23.3125 17.375 C23.28994141 18.39722656 23.26738281 19.41945313 23.24414062 20.47265625 C23.18548082 22.98329581 23.10345928 25.49087379 23 28 C21.0625 28.5625 21.0625 28.5625 19 29 C17.42384699 27.42384699 17.81769558 25.78346103 17.75390625 23.59765625 C17.72103516 22.70755859 17.68816406 21.81746094 17.65429688 20.90039062 C17.59322914 19.01248816 17.53592113 17.12446023 17.48242188 15.23632812 C17.43118164 13.89924805 17.43118164 13.89924805 17.37890625 12.53515625 C17.3538501 11.714104 17.32879395 10.89305176 17.30297852 10.04711914 C17.17486612 7.77755847 17.17486612 7.77755847 15 6 C13.08993694 5.6823754 13.08993694 5.6823754 11 5.75 C10.29875 5.74484375 9.5975 5.7396875 8.875 5.734375 C6.7564331 5.84294485 6.7564331 5.84294485 5 8 C4.63047951 10.12860662 4.63047951 10.12860662 4.5859375 12.5703125 C4.54726563 13.46621094 4.50859375 14.36210938 4.46875 15.28515625 C4.4378125 16.22230469 4.406875 17.15945313 4.375 18.125 C4.33632813 19.06988281 4.29765625 20.01476563 4.2578125 20.98828125 C4.16338654 23.32532375 4.07781606 25.66235501 4 28 C2.34385343 28.38218767 0.67542976 28.71395102 -1 29 C-3.64540597 26.35459403 -2.18562153 18.62595815 -2.1875 15.0625 C-2.20586914 13.23428711 -2.20586914 13.23428711 -2.22460938 11.36914062 C-2.22654297 10.20705078 -2.22847656 9.04496094 -2.23046875 7.84765625 C-2.23457764 6.77523682 -2.23868652 5.70281738 -2.24291992 4.59790039 C-2 2 -2 2 0 0 Z " fill="#141313" transform="translate(979,1705)"/>
<path d="M0 0 C2.0625 0.4375 2.0625 0.4375 4 1 C4 1.99 4 2.98 4 4 C4.66 4 5.32 4 6 4 C6 3.34 6 2.68 6 2 C10.02314866 -0.68209911 13.27219919 -0.68843415 18 0 C21.49890004 2.11391877 22.70578686 3.11736059 24 7 C24.08143855 8.62719482 24.1075302 10.25751719 24.09765625 11.88671875 C24.09443359 12.82451172 24.09121094 13.76230469 24.08789062 14.72851562 C24.07951172 15.70498047 24.07113281 16.68144531 24.0625 17.6875 C24.05798828 18.67556641 24.05347656 19.66363281 24.04882812 20.68164062 C24.03704303 23.12115474 24.02059011 25.56054689 24 28 C22.125 28.625 22.125 28.625 20 29 C17.56153479 26.56153479 17.72338397 25.81673975 17.62109375 22.46484375 C17.56985352 21.12776367 17.56985352 21.12776367 17.51757812 19.76367188 C17.49115234 18.83103516 17.46472656 17.89839844 17.4375 16.9375 C17.37781389 15.09231018 17.31422537 13.24724103 17.24609375 11.40234375 C17.22216553 10.58241943 17.1982373 9.76249512 17.17358398 8.91772461 C17.2056821 6.99218738 17.2056821 6.99218738 16 6 C10.8766222 5.36051837 10.8766222 5.36051837 6.40649414 7.24243164 C4.65181276 9.43509807 4.58170312 10.665247 4.48828125 13.44921875 C4.45283203 14.29677734 4.41738281 15.14433594 4.38085938 16.01757812 C4.35830078 16.89865234 4.33574219 17.77972656 4.3125 18.6875 C4.27833984 19.58017578 4.24417969 20.47285156 4.20898438 21.39257812 C4.12654352 23.59492671 4.05738449 25.79687938 4 28 C2.0625 28.5625 2.0625 28.5625 0 29 C-1.80279191 27.19720809 -1.13036605 24.45952299 -1.1328125 22.03125 C-1.13410156 20.82082031 -1.13539062 19.61039063 -1.13671875 18.36328125 C-1.13285156 17.08839844 -1.12898438 15.81351563 -1.125 14.5 C-1.12886719 13.22511719 -1.13273437 11.95023438 -1.13671875 10.63671875 C-1.13542969 9.42628906 -1.13414063 8.21585938 -1.1328125 6.96875 C-1.13168457 5.84919922 -1.13055664 4.72964844 -1.12939453 3.57617188 C-1 1 -1 1 0 0 Z " fill="#141413" transform="translate(1413,1107)"/>
<path d="M0 0 C3.125 1.25 3.125 1.25 5 3 C5 4.32 5 5.64 5 7 C0.25 6.125 0.25 6.125 -2 5 C-3.99960012 4.960008 -6.00047242 4.95653201 -8 5 C-8.6814823 6.89179203 -8.6814823 6.89179203 -9 9 C-6.78153728 11.21846272 -5.58632309 11.53874597 -2.625 12.375 C1.1540959 13.59818563 3.73983272 14.560615 6 18 C6.74523902 21.89180376 6.31228623 23.48695834 4.25 26.875 C-0.64237592 30.07386118 -5.31323863 29.88757463 -11 29 C-14.25 27 -14.25 27 -16 25 C-15.67 23.68 -15.34 22.36 -15 21 C-12.03824877 21.61277612 -10.61941217 22.25372522 -8 24 C-5.71351152 24.24107326 -5.71351152 24.24107326 -3.3125 24.125 C-2.50425781 24.10695313 -1.69601562 24.08890625 -0.86328125 24.0703125 C-0.24839844 24.04710937 0.36648438 24.02390625 1 24 C0.9190982 21.54819022 0.9190982 21.54819022 0 19 C-2.39069454 17.66395962 -2.39069454 17.66395962 -5.3125 16.9375 C-9.61081299 15.69219437 -12.1398099 14.51204738 -15 11 C-15.75856436 7.03860834 -15.3337936 5.51181686 -13.125 2.125 C-8.74345745 -0.85444894 -5.15165118 -0.77697034 0 0 Z " fill="#0D0D0D" transform="translate(946,1705)"/>
<path d="M0 0 C0.54785156 0.32355469 1.09570312 0.64710937 1.66015625 0.98046875 C1.66015625 2.63046875 1.66015625 4.28046875 1.66015625 5.98046875 C1.10457031 5.820625 0.54898437 5.66078125 -0.0234375 5.49609375 C-2.5331976 4.93742877 -4.83252708 4.77698127 -7.40234375 4.73046875 C-8.25957031 4.7046875 -9.11679688 4.67890625 -10 4.65234375 C-12.36315037 4.81252595 -12.36315037 4.81252595 -14.1171875 6.15625 C-16.64421006 9.92659995 -16.0255341 14.65932578 -15.33984375 18.98046875 C-12.74532256 22.26177496 -11.33398192 22.86117217 -7.21484375 23.35546875 C-4.14603403 23.17079089 -4.14603403 23.17079089 -1.33984375 20.98046875 C0.84765625 21.35546875 0.84765625 21.35546875 2.66015625 21.98046875 C2.41015625 23.85546875 2.41015625 23.85546875 1.66015625 25.98046875 C-3.11069385 29.13879376 -8.86207358 28.58077233 -14.33984375 27.98046875 C-18.74747554 25.64172535 -20.66872908 22.64199914 -22.33984375 17.98046875 C-23.03912861 13.30719918 -22.85443079 9.33956295 -20.65234375 5.10546875 C-15.72616401 -1.5515309 -7.78604243 -3.39258276 0 0 Z " fill="#101010" transform="translate(1033.33984375,1706.01953125)"/>
<path d="M0 0 C3.72806384 0.809295 5.15735786 2.32101983 7.1953125 5.4765625 C8.03955826 9.54205665 7.60038031 12.58927111 5.8828125 16.3515625 C3.61293154 19.20993112 1.96086097 20.37670835 -1.6796875 20.8515625 C-5.52321008 20.39033979 -7.06068861 19.14216142 -9.8046875 16.4765625 C-11.54328563 12.99936623 -11.25037992 9.27805665 -10.8046875 5.4765625 C-8.36905438 0.28760498 -5.37745265 -0.3372 0 0 Z " fill="#EAE8E0" transform="translate(989.8046875,1111.5234375)"/>
<path d="M0 0 C2.12890625 0.47265625 2.12890625 0.47265625 4.69140625 2.41015625 C6.63924307 6.55989556 6.92063893 9.96712597 6.12890625 14.47265625 C4.56640625 17.47265625 4.56640625 17.47265625 2.12890625 19.47265625 C-1.30859375 20.53515625 -1.30859375 20.53515625 -4.87109375 20.47265625 C-7.67298821 18.70624453 -9.38634286 17.44215803 -10.87109375 14.47265625 C-11.40311339 10.03334486 -11.34804991 6.48878025 -9.43359375 2.41015625 C-6.17600617 -0.05289777 -4.01632423 -0.25805049 0 0 Z " fill="#EBE9E1" transform="translate(1494.87109375,1111.52734375)"/>
<path d="M0 0 C3.62129338 0.86767624 4.97000055 2.40608971 6.97265625 5.47265625 C7.89799789 10.00109808 7.545114 13.37353737 5.41015625 17.47265625 C2.17349388 20.12837922 0.14342904 20.5458277 -4.02734375 20.47265625 C-6.82923821 18.70624453 -8.54259286 17.44215803 -10.02734375 14.47265625 C-10.56285503 10.00420965 -10.52416259 6.48699472 -8.52734375 2.41015625 C-5.66518151 0.19198052 -3.62027287 -0.26390774 0 0 Z " fill="#EBE9E1" transform="translate(864.02734375,1111.52734375)"/>
<path d="M0 0 C2.0625 0.4375 2.0625 0.4375 4 1 C4 3.31 4 5.62 4 8 C6.31 8 8.62 8 11 8 C11 9.32 11 10.64 11 12 C8.69 12 6.38 12 4 12 C4.33 17.94 4.66 23.88 5 30 C6.65 30.33 8.3 30.66 10 31 C10 32.32 10 33.64 10 35 C7.17116253 36.41441874 5.12623255 36.31900332 2 36 C-0.00888665 33.93277854 -0.91414037 32.5773214 -1.34057617 29.70996094 C-1.32486572 28.89301758 -1.30915527 28.07607422 -1.29296875 27.234375 C-1.28330078 26.34492187 -1.27363281 25.45546875 -1.26367188 24.5390625 C-1.23853516 23.61867188 -1.21339844 22.69828125 -1.1875 21.75 C-1.17396484 20.81414062 -1.16042969 19.87828125 -1.14648438 18.9140625 C-1.11119954 16.60878673 -1.06190281 14.3046894 -1 12 C-2.65 12 -4.3 12 -6 12 C-6 10.68 -6 9.36 -6 8 C-4.35 7.67 -2.7 7.34 -1 7 C-1.020625 6.030625 -1.04125 5.06125 -1.0625 4.0625 C-1 1 -1 1 0 0 Z " fill="#090909" transform="translate(922,1100)"/>
<path d="M0 0 C2.0625 0.4375 2.0625 0.4375 4 1 C4 2.98 4 4.96 4 7 C5.65 7 7.3 7 9 7 C9.66 8.32 10.32 9.64 11 11 C10.67 11.33 10.34 11.66 10 12 C8.02 12 6.04 12 4 12 C4 18.27 4 24.54 4 31 C5.65 31 7.3 31 9 31 C9.33 32.32 9.66 33.64 10 35 C7.20129973 36.39935013 5.09501208 36.25265405 2 36 C0.3269043 34.78979492 0.3269043 34.78979492 -1 33 C-1.34057617 30.73168945 -1.34057617 30.73168945 -1.29296875 28.11328125 C-1.28330078 27.17548828 -1.27363281 26.23769531 -1.26367188 25.27148438 C-1.23853516 24.29501953 -1.21339844 23.31855469 -1.1875 22.3125 C-1.17396484 21.32443359 -1.16042969 20.33636719 -1.14648438 19.31835938 C-1.11112203 16.87835769 -1.06177033 14.43945281 -1 12 C-2.65 12 -4.3 12 -6 12 C-6 10.68 -6 9.36 -6 8 C-4.35 8 -2.7 8 -1 8 C-1.020625 6.865625 -1.04125 5.73125 -1.0625 4.5625 C-1 1 -1 1 0 0 Z " fill="#090909" transform="translate(1099,1100)"/>
<path d="M0 0 C1.32 0.66 2.64 1.32 4 2 C4.04935824 7.23273331 4.08569949 12.46533176 4.10986328 17.69824219 C4.11993431 19.47919067 4.13359185 21.26012257 4.15087891 23.04101562 C4.17507913 25.59769783 4.18647184 28.15416185 4.1953125 30.7109375 C4.20563507 31.50994476 4.21595764 32.30895203 4.22659302 33.13217163 C4.22699226 35.0895722 4.12241069 37.04643077 4 39 C3.34 39.66 2.68 40.32 2 41 C-0.125 40.625 -0.125 40.625 -2 40 C-2.04935509 34.62485095 -2.08569802 29.24983315 -2.10986328 23.87451172 C-2.11993484 22.04506127 -2.13359276 20.21562697 -2.15087891 18.38623047 C-2.17507677 15.76005066 -2.18647132 13.13408325 -2.1953125 10.5078125 C-2.20563507 9.68693146 -2.21595764 8.86605042 -2.22659302 8.02029419 C-2.22699184 6.01210858 -2.1224954 4.00444618 -2 2 C-1.34 1.34 -0.68 0.68 0 0 Z " fill="#21201F" transform="translate(1552,1095)"/>
<path d="M0 0 C2 0.25 2 0.25 4 1 C4.33 1.99 4.66 2.98 5 4 C5.515625 3.34 6.03125 2.68 6.5625 2 C9.79995755 -0.65637543 11.92552281 -0.31342132 16 0 C16.33 1.32 16.66 2.64 17 4 C16.2575 4.144375 15.515 4.28875 14.75 4.4375 C13.8425 4.623125 12.935 4.80875 12 5 C11.29875 5.103125 10.5975 5.20625 9.875 5.3125 C7.09985929 6.33005159 6.46105954 7.40211605 5 10 C4.49024123 13.07532098 4.39760879 16.13744985 4.3125 19.25 C4.27833984 20.09046875 4.24417969 20.9309375 4.20898438 21.796875 C4.12676432 23.86412204 4.06169843 25.93203874 4 28 C2.0625 28.5625 2.0625 28.5625 0 29 C-1.80279191 27.19720809 -1.13036605 24.45952299 -1.1328125 22.03125 C-1.13410156 20.82082031 -1.13539062 19.61039063 -1.13671875 18.36328125 C-1.13285156 17.08839844 -1.12898438 15.81351563 -1.125 14.5 C-1.12886719 13.22511719 -1.13273437 11.95023438 -1.13671875 10.63671875 C-1.13542969 9.42628906 -1.13414063 8.21585938 -1.1328125 6.96875 C-1.13168457 5.84919922 -1.13055664 4.72964844 -1.12939453 3.57617188 C-1 1 -1 1 0 0 Z " fill="#0E0E0D" transform="translate(1220,1107)"/>
<path d="M0 0 C2 0.3125 2 0.3125 4 1 C4.33 1.66 4.66 2.32 5 3 C5.515625 2.505 6.03125 2.01 6.5625 1.5 C9.80680017 -0.49649241 12.26217334 -0.21564385 16 0 C15.67 1.65 15.34 3.3 15 5 C14.0925 4.9175 13.185 4.835 12.25 4.75 C9.02726203 4.73613728 9.02726203 4.73613728 6.84375 6.40625 C4.06595351 10.31399761 4.3261695 14.06211372 4.25 18.75 C4.22035156 19.63816406 4.19070313 20.52632812 4.16015625 21.44140625 C4.08963082 23.62769449 4.03685363 25.81292768 4 28 C2.0625 28.5625 2.0625 28.5625 0 29 C-1.80279191 27.19720809 -1.13036605 24.45952299 -1.1328125 22.03125 C-1.13410156 20.82082031 -1.13539063 19.61039063 -1.13671875 18.36328125 C-1.13285156 17.08839844 -1.12898437 15.81351563 -1.125 14.5 C-1.12886719 13.22511719 -1.13273438 11.95023438 -1.13671875 10.63671875 C-1.13542969 9.42628906 -1.13414062 8.21585938 -1.1328125 6.96875 C-1.13168457 5.84919922 -1.13055664 4.72964844 -1.12939453 3.57617188 C-1 1 -1 1 0 0 Z " fill="#080808" transform="translate(724,1107)"/>
<path d="M0 0 C1.98 0.495 1.98 0.495 4 1 C4 9.91 4 18.82 4 28 C2.68 28.33 1.36 28.66 0 29 C-1.80279191 27.19720809 -1.13036605 24.45952299 -1.1328125 22.03125 C-1.13410156 20.82082031 -1.13539063 19.61039063 -1.13671875 18.36328125 C-1.13285156 17.08839844 -1.12898437 15.81351563 -1.125 14.5 C-1.12886719 13.22511719 -1.13273438 11.95023438 -1.13671875 10.63671875 C-1.13542969 9.42628906 -1.13414062 8.21585938 -1.1328125 6.96875 C-1.13168457 5.84919922 -1.13055664 4.72964844 -1.12939453 3.57617188 C-1 1 -1 1 0 0 Z " fill="#090909" transform="translate(962,1705)"/>
<path d="M0 0 C1.98 0.495 1.98 0.495 4 1 C4 9.91 4 18.82 4 28 C2.68 28.33 1.36 28.66 0 29 C-1.80279191 27.19720809 -1.13036605 24.45952299 -1.1328125 22.03125 C-1.13410156 20.82082031 -1.13539062 19.61039063 -1.13671875 18.36328125 C-1.13285156 17.08839844 -1.12898438 15.81351563 -1.125 14.5 C-1.12886719 13.22511719 -1.13273437 11.95023438 -1.13671875 10.63671875 C-1.13542969 9.42628906 -1.13414063 8.21585938 -1.1328125 6.96875 C-1.13168457 5.84919922 -1.13055664 4.72964844 -1.12939453 3.57617188 C-1 1 -1 1 0 0 Z " fill="#0B0B0A" transform="translate(1365,1107)"/>
<path d="M0 0 C2.5 1.875 2.5 1.875 4 4 C4 4.66 4 5.32 4 6 C-0.95 6 -5.9 6 -11 6 C-10.67 4.35 -10.34 2.7 -10 1 C-6.80713177 -0.59643412 -3.46579307 -0.51370451 0 0 Z " fill="#EAE8E0" transform="translate(1060,1710)"/>
<path d="M0 0 C1.17369141 -0.02513672 1.17369141 -0.02513672 2.37109375 -0.05078125 C5.07388797 0.39727555 5.96255607 1.11579242 7.5625 3.3125 C7.5625 4.3025 7.5625 5.2925 7.5625 6.3125 C2.6125 6.3125 -2.3375 6.3125 -7.4375 6.3125 C-6.13536301 1.10395203 -5.17044256 0.02547016 0 0 Z " fill="#EBE9E1" transform="translate(1163.4375,1111.6875)"/>
<path d="M0 0 C-0.33 1.65 -0.66 3.3 -1 5 C-1.928125 4.979375 -2.85625 4.95875 -3.8125 4.9375 C-7.02286011 4.84230396 -7.02286011 4.84230396 -10 6 C-10.99 5.67 -11.98 5.34 -13 5 C-12.67 3.68 -12.34 2.36 -12 1 C-11.67 1.66 -11.34 2.32 -11 3 C-10.484375 2.505 -9.96875 2.01 -9.4375 1.5 C-6.19319983 -0.49649241 -3.73782666 -0.21564385 0 0 Z " fill="#121212" transform="translate(740,1107)"/>
<path d="M0 0 C1.65 0 3.3 0 5 0 C5.5625 1.9375 5.5625 1.9375 6 4 C5 5 5 5 2.4375 5.0625 C1.2309375 5.0315625 1.2309375 5.0315625 0 5 C0 3.35 0 1.7 0 0 Z " fill="#101010" transform="translate(961,1696)"/>
<path d="M0 0 C1.2065625 0.0309375 1.2065625 0.0309375 2.4375 0.0625 C2.4375 1.7125 2.4375 3.3625 2.4375 5.0625 C0.7875 5.0625 -0.8625 5.0625 -2.5625 5.0625 C-3.125 3.125 -3.125 3.125 -3.5625 1.0625 C-2.5625 0.0625 -2.5625 0.0625 0 0 Z " fill="#0F0F0E" transform="translate(1366.5625,1097.9375)"/>
</svg>
